<?xml version="1.0" encoding="UTF-8"?>
<svg xmlns="http://www.w3.org/2000/svg" viewBox="0 0 811.161 97.181">
  <g id="Layer_2" data-name="Layer 2">
    <path d="m157.695,80.531h9.446c4.911,0,8.892-3.981,8.892-8.892v-6.849c0-1.242,1.007-2.249,2.249-2.249h3.501c4.911,0,8.892-3.981,8.892-8.892v-10.863c0-4.911-3.981-8.892-8.892-8.892h-1.807v5.421h3.111c1.242,0,2.249,1.007,2.249,2.249v13.391c0,1.241-1.006,2.248-2.247,2.249l-3.468.002c-4.908.003-8.886,3.983-8.886,8.892v6.927c0,1.242-1.007,2.249-2.249,2.249h-12.075c-1.242,0-2.249-1.007-2.249-2.249v-18.153c0-1.242,1.007-2.249,2.249-2.249h7.957c4.911,0,8.892-3.981,8.892-8.892v-15.586c0-4.911-3.981-8.892-8.892-8.892h-6.674c-4.911,0-8.892,3.981-8.892,8.892v3.501c0,1.242-1.007,2.249-2.249,2.249h-3.501c-4.911,0-8.892,3.981-8.892,8.892v10.863c0,4.911,3.981,8.892,8.892,8.892h1.376v-5.339h-2.598c-1.242,0-2.249-1.007-2.249-2.249v-13.389c0-1.242,1.007-2.249,2.249-2.249h3.535c4.969,0,8.974-4.073,8.891-9.042l-.056-3.309c-.021-1.257.992-2.286,2.248-2.286h9.264c1.242,0,2.249,1.007,2.249,2.249v18.148c0,1.242-1.007,2.249-2.249,2.249h-8.019c-4.911,0-8.892,3.981-8.892,8.892v15.422c0,4.911,3.981,8.892,8.892,8.892Z" fill="#004dff"/>
  </g>
  <g id="Layer_3" data-name="Layer 3">
    <g id="Layer_19" data-name="Layer 19">
      <path d="m0,78.418V4.013h57.702v10.412H12.148v20.716h40.78v10.412H12.148v22.452h46.204v10.412H0Z" fill="#004dff"/>
    </g>
    <g id="Layer_18" data-name="Layer 18">
      <path d="m73.428,97.181V21.368h9.219l.975,7.809h.761c1.952-3.036,4.446-5.314,7.483-6.833,3.036-1.518,6.435-2.277,10.195-2.277,4.7,0,8.731,1.049,12.094,3.145,3.361,2.098,5.946,5.352,7.754,9.762,1.806,4.41,2.713,10.124,2.713,17.137,0,6.796-.922,12.382-2.766,16.757-1.845,4.375-4.431,7.61-7.756,9.706-3.326,2.096-7.158,3.145-11.497,3.145-2.532,0-4.881-.29-7.049-.866-2.17-.578-4.106-1.481-5.803-2.713-1.699-1.228-3.164-2.782-4.393-4.663h-.65v25.706h-11.28Zm25.272-27.224c3.397,0,6.145-.668,8.242-2.007,2.096-1.337,3.634-3.416,4.609-6.236.977-2.82,1.465-6.399,1.465-10.737v-1.954c0-4.554-.508-8.242-1.518-11.063-1.014-2.82-2.549-4.881-4.61-6.182-2.061-1.302-4.718-1.952-7.972-1.952-3.326,0-6.037.741-8.134,2.223-2.099,1.483-3.634,3.67-4.61,6.563-.975,2.892-1.464,6.399-1.464,10.52v1.518c0,3.4.325,6.329.975,8.785.652,2.46,1.59,4.466,2.82,6.02,1.228,1.556,2.711,2.695,4.447,3.417,1.736.724,3.65,1.084,5.749,1.084Z" fill="#004dff"/>
    </g>
    <g id="Layer_16" data-name="Layer 16">
      <path d="m225.813,79.718c-5.714,0-10.486-1.067-14.317-3.198-3.834-2.133-6.708-5.405-8.624-9.817-1.917-4.409-2.875-10.014-2.875-16.812s.977-12.381,2.929-16.757c1.952-4.374,4.862-7.647,8.731-9.815,3.867-2.17,8.624-3.254,14.262-3.254,3.906,0,7.302.488,10.196,1.464,2.891.977,5.35,2.424,7.375,4.34s3.526,4.284,4.502,7.104c.977,2.82,1.464,6.037,1.464,9.653h-11.388c0-3.038-.434-5.533-1.302-7.485s-2.207-3.416-4.013-4.393c-1.808-.975-4.159-1.464-7.049-1.464-3.036,0-5.605.705-7.701,2.115-2.098,1.409-3.687,3.542-4.772,6.399-1.084,2.857-1.627,6.599-1.627,11.224v1.845c0,4.41.524,8.081,1.573,11.008,1.047,2.929,2.639,5.097,4.772,6.508,2.133,1.409,4.862,2.115,8.19,2.115,2.891,0,5.222-.524,6.995-1.573,1.771-1.047,3.108-2.567,4.013-4.556.903-1.987,1.356-4.393,1.356-7.213h10.954c0,3.4-.487,6.473-1.464,9.219-.975,2.748-2.458,5.116-4.447,7.104-1.989,1.99-4.465,3.525-7.429,4.61-2.966,1.084-6.399,1.626-10.303,1.626Z" fill="#004dff"/>
    </g>
    <g id="Layer_15" data-name="Layer 15">
      <path d="m262.689,78.418V0h11.28v28.201h.759c1.373-1.736,2.927-3.2,4.663-4.393s3.688-2.115,5.856-2.766c2.17-.652,4.556-.977,7.158-.977,3.616,0,6.796.634,9.546,1.898,2.747,1.267,4.897,3.308,6.452,6.129s2.332,6.615,2.332,11.388v38.938h-11.279v-37.202c0-2.17-.272-3.976-.814-5.422-.543-1.446-1.321-2.604-2.332-3.472-1.014-.866-2.207-1.48-3.579-1.843-1.375-.36-2.894-.543-4.556-.543-2.602,0-4.972.616-7.104,1.845-2.133,1.23-3.85,2.966-5.152,5.206-1.302,2.242-1.952,4.918-1.952,8.026v33.405h-11.28Z" fill="#004dff"/>
    </g>
    <g id="Layer_14" data-name="Layer 14">
      <path d="m340.887,79.718c-3.254,0-5.802-.633-7.647-1.898-1.843-1.264-3.145-2.891-3.904-4.881-.759-1.987-1.139-4.103-1.139-6.345V30.694h-7.158v-9.327h7.375l2.061-15.944h9.003v15.944h10.303v9.327h-10.303v34.6c0,1.664.36,2.927,1.084,3.795.722.868,1.915,1.302,3.579,1.302h5.64v7.592c-.724.29-1.611.559-2.657.814-1.05.252-2.115.469-3.2.65-1.086.179-2.099.271-3.038.271Z" fill="#004dff"/>
    </g>
    <g id="Layer_13" data-name="Layer 13">
      <path d="m385.247,79.718c-5.856,0-10.755-1.067-14.696-3.198-3.941-2.133-6.924-5.405-8.947-9.817-2.026-4.409-3.038-10.014-3.038-16.812,0-6.869,1.012-12.49,3.038-16.865,2.023-4.375,5.024-7.629,9.002-9.762,3.976-2.132,8.929-3.2,14.859-3.2,5.422,0,9.959,1.031,13.612,3.091,3.65,2.061,6.415,5.19,8.297,9.383,1.88,4.194,2.82,9.472,2.82,15.835v4.338h-40.022c.144,4.05.759,7.43,1.845,10.142,1.084,2.711,2.727,4.7,4.934,5.965,2.205,1.265,5.006,1.898,8.406,1.898,2.096,0,3.976-.271,5.64-.814,1.662-.543,3.073-1.337,4.229-2.386,1.156-1.047,2.061-2.313,2.713-3.795.65-1.481.975-3.163.975-5.044h11.063c0,3.4-.58,6.399-1.734,9.003-1.158,2.602-2.839,4.79-5.044,6.561-2.205,1.773-4.825,3.129-7.863,4.068-3.036.939-6.399,1.409-10.087,1.409Zm-14.858-35.249h27.983c0-2.82-.309-5.187-.922-7.104-.615-1.915-1.502-3.488-2.657-4.718-1.158-1.23-2.533-2.115-4.122-2.658-1.592-.541-3.4-.814-5.424-.814-3.036,0-5.622.543-7.754,1.627-2.133,1.084-3.779,2.766-4.935,5.044-1.158,2.277-1.88,5.152-2.168,8.622Z" fill="#004dff"/>
    </g>
    <g id="Layer_12" data-name="Layer 12">
      <path d="m423.533,78.418V0h11.279v78.418h-11.279Z" fill="#004dff"/>
    </g>
    <g id="Layer_11" data-name="Layer 11">
      <path d="m474.833,79.718c-5.856,0-10.755-1.067-14.696-3.198-3.941-2.133-6.924-5.405-8.947-9.817-2.026-4.409-3.038-10.014-3.038-16.812,0-6.869,1.012-12.49,3.038-16.865,2.023-4.375,5.024-7.629,9.002-9.762,3.976-2.132,8.929-3.2,14.859-3.2,5.422,0,9.959,1.031,13.612,3.091,3.65,2.061,6.415,5.19,8.297,9.383,1.88,4.194,2.82,9.472,2.82,15.835v4.338h-40.022c.144,4.05.759,7.43,1.845,10.142,1.084,2.711,2.727,4.7,4.934,5.965,2.205,1.265,5.006,1.898,8.406,1.898,2.096,0,3.976-.271,5.64-.814,1.662-.543,3.073-1.337,4.229-2.386,1.156-1.047,2.061-2.313,2.713-3.795.65-1.481.975-3.163.975-5.044h11.063c0,3.4-.58,6.399-1.734,9.003-1.158,2.602-2.839,4.79-5.044,6.561-2.205,1.773-4.825,3.129-7.863,4.068-3.036.939-6.399,1.409-10.087,1.409Zm-14.858-35.249h27.983c0-2.82-.309-5.187-.922-7.104-.615-1.915-1.502-3.488-2.657-4.718-1.158-1.23-2.533-2.115-4.122-2.658-1.592-.541-3.4-.814-5.424-.814-3.036,0-5.622.543-7.754,1.627-2.133,1.084-3.779,2.766-4.935,5.044-1.158,2.277-1.88,5.152-2.168,8.622Z" fill="#004dff"/>
    </g>
    <g id="Layer_10" data-name="Layer 10">
      <path d="m513.118,78.418V0h11.279v28.201h.761c1.373-1.736,2.927-3.2,4.663-4.393s3.688-2.115,5.856-2.766c2.17-.652,4.556-.977,7.158-.977,3.614,0,6.796.634,9.544,1.898,2.748,1.267,4.899,3.308,6.454,6.129s2.332,6.615,2.332,11.388v38.938h-11.279v-37.202c0-2.17-.272-3.976-.814-5.422-.543-1.446-1.321-2.604-2.333-3.472-1.012-.866-2.205-1.48-3.579-1.843-1.374-.36-2.892-.543-4.554-.543-2.604,0-4.972.616-7.104,1.845-2.135,1.23-3.851,2.966-5.152,5.206-1.302,2.242-1.954,4.918-1.954,8.026v33.405h-11.279Z" fill="#004dff"/>
    </g>
    <g id="Layer_9" data-name="Layer 9">
      <path d="m600.753,79.718c-5.856,0-10.755-1.067-14.696-3.198-3.941-2.133-6.924-5.405-8.947-9.817-2.026-4.409-3.038-10.014-3.038-16.812,0-6.869,1.012-12.49,3.038-16.865,2.023-4.375,5.024-7.629,9.002-9.762,3.976-2.132,8.929-3.2,14.859-3.2,5.422,0,9.959,1.031,13.612,3.091,3.65,2.061,6.415,5.19,8.297,9.383,1.88,4.194,2.82,9.472,2.82,15.835v4.338h-40.022c.144,4.05.759,7.43,1.845,10.142,1.084,2.711,2.727,4.7,4.934,5.965,2.205,1.265,5.006,1.898,8.406,1.898,2.096,0,3.976-.271,5.64-.814,1.662-.543,3.073-1.337,4.229-2.386,1.156-1.047,2.061-2.313,2.713-3.795.65-1.481.975-3.163.975-5.044h11.063c0,3.4-.58,6.399-1.734,9.003-1.158,2.602-2.839,4.79-5.044,6.561-2.205,1.773-4.825,3.129-7.863,4.068-3.036.939-6.399,1.409-10.087,1.409Zm-14.858-35.249h27.983c0-2.82-.309-5.187-.922-7.104-.615-1.915-1.502-3.488-2.657-4.718-1.158-1.23-2.533-2.115-4.122-2.658-1.592-.541-3.4-.814-5.424-.814-3.036,0-5.622.543-7.754,1.627-2.133,1.084-3.779,2.766-4.935,5.044-1.158,2.277-1.88,5.152-2.168,8.622Z" fill="#004dff"/>
    </g>
    <g id="Layer_8" data-name="Layer 8">
      <path d="m653.465,79.718c-1.809,0-3.762-.216-5.858-.65-2.098-.434-4.068-1.228-5.911-2.386-1.843-1.156-3.345-2.766-4.502-4.827s-1.734-4.753-1.734-8.081c0-3.904.903-7.12,2.711-9.652,1.806-2.53,4.338-4.519,7.592-5.965s7.139-2.458,11.66-3.038c4.518-.578,9.453-.868,14.805-.868v-5.639c0-1.88-.309-3.542-.922-4.99-.615-1.446-1.736-2.566-3.363-3.361s-3.959-1.193-6.995-1.193-5.406.38-7.104,1.139c-1.701.759-2.894,1.699-3.579,2.82-.688,1.121-1.031,2.332-1.031,3.632v1.627h-10.846c-.072-.36-.107-.721-.107-1.084v-1.302c0-3.397.958-6.271,2.873-8.622,1.915-2.349,4.61-4.138,8.081-5.369,3.472-1.228,7.483-1.843,12.039-1.843,4.916,0,9.019.705,12.31,2.115,3.289,1.409,5.765,3.416,7.43,6.02,1.662,2.602,2.493,5.748,2.493,9.436v28.958c0,1.375.343,2.351,1.031,2.929.686.58,1.499.868,2.441.868h3.904v7.592c-.868.362-1.952.722-3.254,1.084-1.302.36-2.82.543-4.556.543-1.952,0-3.597-.344-4.934-1.031-1.339-.686-2.424-1.662-3.254-2.927-.833-1.265-1.393-2.694-1.681-4.285h-.65c-1.302,1.665-2.875,3.129-4.718,4.393-1.845,1.267-3.96,2.243-6.346,2.929-2.386.687-5.062,1.03-8.025,1.03Zm3.145-9.327c2.24,0,4.319-.343,6.236-1.031,1.915-.686,3.56-1.662,4.935-2.927,1.373-1.265,2.457-2.783,3.254-4.556.794-1.771,1.193-3.704,1.193-5.802v-3.797c-4.99,0-9.365.29-13.125.868-3.76.58-6.688,1.646-8.785,3.2-2.098,1.556-3.145,3.707-3.145,6.454,0,1.664.362,3.055,1.086,4.175.721,1.122,1.806,1.971,3.253,2.549,1.446.58,3.147.868,5.099.868Z" fill="#004dff"/>
    </g>
    <g id="Layer_7" data-name="Layer 7">
      <path d="m700.534,78.418V0h11.279v78.418h-11.279Z" fill="#004dff"/>
    </g>
    <g id="Layer_6" data-name="Layer 6">
      <path d="m742.398,79.718c-3.254,0-5.802-.633-7.647-1.898-1.843-1.264-3.145-2.891-3.904-4.881-.759-1.987-1.139-4.103-1.139-6.345V30.694h-7.158v-9.327h7.375l2.061-15.944h9.003v15.944h10.303v9.327h-10.303v34.6c0,1.664.36,2.927,1.084,3.795.722.868,1.915,1.302,3.579,1.302h5.64v7.592c-.724.29-1.611.559-2.657.814-1.05.252-2.115.469-3.2.65-1.086.179-2.099.271-3.038.271Z" fill="#004dff"/>
    </g>
    <g id="Layer_5" data-name="Layer 5">
      <path d="m763.114,78.418V0h11.279v28.201h.761c1.373-1.736,2.927-3.2,4.663-4.393s3.688-2.115,5.856-2.766c2.17-.652,4.556-.977,7.158-.977,3.614,0,6.796.634,9.544,1.898,2.748,1.267,4.899,3.308,6.454,6.129s2.332,6.615,2.332,11.388v38.938h-11.279v-37.202c0-2.17-.272-3.976-.814-5.422-.543-1.446-1.321-2.604-2.333-3.472-1.012-.866-2.205-1.48-3.579-1.843-1.374-.36-2.892-.543-4.554-.543-2.604,0-4.972.616-7.104,1.845-2.135,1.23-3.851,2.966-5.152,5.206-1.302,2.242-1.954,4.918-1.954,8.026v33.405h-11.279Z" fill="#004dff"/>
    </g>
  </g>
</svg>